<svg xmlns="http://www.w3.org/2000/svg" viewBox="0 0 500 500"><g id="freepik--background-complete--inject-67"><rect x="39.97" y="228.06" width="420.06" height="63.87" style="fill:#ebebeb;"></rect><g><g><path d="M73.32,46.88V377.16H234.13V46.88H73.32ZM229.13,372.58H78.32V51.46H229.13V372.58Z" style="fill:#c7c7c7;"></path><rect x="78.32" y="51.46" width="150.81" height="321.12" style="fill:#fff;"></rect><g style="opacity:.5;"><polygon points="229.13 51.46 229.13 79.69 78.32 217.89 78.32 188.28 227.62 51.46 229.13 51.46" style="fill:#ebebeb;"></polygon><polygon points="229.13 292.79 229.13 322.39 174.36 372.58 142.06 372.58 229.13 292.79" style="fill:#ebebeb;"></polygon><polygon points="229.13 140.76 229.13 143.66 78.32 281.86 78.32 278.96 229.13 140.76" style="fill:#ebebeb;"></polygon><polygon points="229.13 254.8 229.13 257.69 103.78 372.58 100.62 372.58 229.13 254.8" style="fill:#ebebeb;"></polygon><polygon points="127.92 51.46 78.32 96.91 78.32 94.02 124.76 51.46 127.92 51.46" style="fill:#ebebeb;"></polygon><polygon points="214.62 51.46 78.32 176.36 78.32 166 203.31 51.46 214.62 51.46" style="fill:#ebebeb;"></polygon><polygon points="229.13 214.22 229.13 224.58 78.32 362.79 78.32 352.41 229.13 214.22" style="fill:#ebebeb;"></polygon><polygon points="229.13 343.07 229.13 353.44 208.25 372.58 196.93 372.58 229.13 343.07" style="fill:#ebebeb;"></polygon></g></g><g><path d="M426.68,377.16V46.88h-160.81V377.16h160.81ZM270.87,51.46h150.81V372.58h-150.81V51.46Z" style="fill:#c7c7c7;"></path><rect x="270.87" y="51.46" width="150.81" height="321.12" style="fill:#fff;"></rect><g style="opacity:.5;"><polygon points="270.87 372.58 270.87 344.34 421.68 206.15 421.68 235.76 272.38 372.58 270.87 372.58" style="fill:#ebebeb;"></polygon><polygon points="270.87 131.25 270.87 101.65 325.64 51.46 357.94 51.46 270.87 131.25" style="fill:#ebebeb;"></polygon><polygon points="270.87 283.28 270.87 280.38 421.68 142.18 421.68 145.07 270.87 283.28" style="fill:#ebebeb;"></polygon><polygon points="270.87 169.24 270.87 166.34 396.22 51.46 399.38 51.46 270.87 169.24" style="fill:#ebebeb;"></polygon><polygon points="372.08 372.58 421.68 327.12 421.68 330.02 375.24 372.58 372.08 372.58" style="fill:#ebebeb;"></polygon><polygon points="285.38 372.58 421.68 247.68 421.68 258.04 296.69 372.58 285.38 372.58" style="fill:#ebebeb;"></polygon><polygon points="270.87 209.82 270.87 199.46 421.68 61.25 421.68 71.62 270.87 209.82" style="fill:#ebebeb;"></polygon><polygon points="270.87 80.97 270.87 70.59 291.75 51.46 303.07 51.46 270.87 80.97" style="fill:#ebebeb;"></polygon></g></g></g></g><g id="freepik--Plant--inject-67"><g><g><g><path d="M384.35,355.85s-21.42-5.76-32.83-17.15c-11.41-11.39-17.25-31.21-17.25-31.21,0,0,12.63,2.84,23.99,7.33,1.85,2.15,5.36,6.56,6.92,10.66,0,0,.53-4.25,.35-7.41,3.02,1.54,5.65,3.22,7.51,4.98,9.48,8.99,11.31,32.79,11.31,32.79Z" style="fill:#1D4ED8;"></path><g><path d="M347.39,317.54c-2.87-2.16-5.79-4.24-8.64-6.42-.17-.13,0-.4,.19-.28,5.44,3.55,10.79,7.32,15.95,11.26,1.8,1.37,3.57,2.8,5.31,4.24-.12-.22-.23-.44-.35-.66-.61-1.11-1.25-2.2-1.89-3.3-1.29-2.19-2.71-4.36-4.34-6.31-.06-.07,.05-.17,.11-.1,1.6,2.01,3.21,4,4.66,6.12,.69,1.01,1.33,2.05,1.93,3.11,.31,.55,.62,1.11,.91,1.67,.1,.19,.2,.38,.3,.57,2.71,2.31,5.34,4.7,7.84,7.23,1.54,1.56,3.03,3.17,4.46,4.82-.73-2.65-1.36-5.32-2.22-7.94-.03-.09,.12-.12,.14-.03,.83,2.74,1.76,5.49,2.37,8.3,1.59,1.85,3.09,3.77,4.51,5.76-.02-.12-.04-.24-.06-.35-.2-1.03-.42-2.06-.65-3.08-.45-1.98-.95-3.94-1.53-5.88-1.2-3.98-2.8-7.9-5.37-11.2-.06-.07,.05-.17,.11-.1,4.02,5.17,6.26,11.26,7.59,17.62,.19,.93,.38,1.86,.55,2.8,.09,.49,.2,1,.26,1.51,.62,.91,1.22,1.83,1.8,2.76,3.53,5.73,6.21,11.95,8.43,18.3,2.5,7.15,4.37,14.5,6.07,21.87,.03,.14-.18,.19-.22,.05-3.72-12.82-7.53-25.82-14.32-37.41-1.43-2.45-2.99-4.81-4.66-7.1-3.55-.34-7.11-1.26-10.43-2.51-3.67-1.39-7.12-3.25-10.33-5.51-1.85-1.3-3.53-2.81-5.24-4.29-.08-.07,.02-.18,.1-.11,2.82,2.59,6.26,4.66,9.67,6.39,3.42,1.73,7.04,3.13,10.76,4.09,1.58,.41,3.19,.73,4.8,1.02-1.9-2.54-3.94-4.98-6.09-7.32-.7-.76-1.43-1.48-2.15-2.22-2.41-1.91-5.1-3.45-7.81-4.89-3.47-1.85-6.89-3.8-10.32-5.73-1.94-1.08-3.86-2.19-5.82-3.25-.08-.05,0-.17,.08-.12,3.48,1.86,7.03,3.6,10.55,5.39,3.31,1.68,6.67,3.37,9.83,5.32,.14,.08,.26,.17,.4,.26-2.83-2.67-5.76-5.22-8.77-7.68-2.78-2.28-5.6-4.51-8.47-6.67Z" style="fill:#263238;"></path><path d="M348.17,328.73c1.73,.84,3.49,1.59,5.2,2.48,1.76,.91,3.41,1.96,5.07,3.03,.07,.05,0,.15-.07,.11-1.69-.89-3.41-1.73-5.08-2.66-1.71-.95-3.4-1.96-5.16-2.81-.08-.04-.04-.18,.05-.14Z" style="fill:#263238;"></path></g></g><g><path d="M451.81,244.76s-5.69,7.27-5.49,18.29c.03,1.94,.48,4.62,.88,7.79-7.82,4.73-13.45,12.8-13.45,12.8,4.43-2.99,10.65-4.44,14.06-4.17,0,2.09-.13,4.28-.48,6.5-1.5,0-4.38,.35-9.06,2.3,0,0,4.68-.37,8.35,1.2-3.19,12.46-13.96,25.66-45.28,32.69,0,0-7.25-21.13,3.21-44.78,8.47-19.14,47.27-32.62,47.27-32.62Z" style="fill:#1D4ED8;"></path><g><path d="M393.2,375.16c.27-5.26,.68-10.52,1.21-15.76,1.06-10.49,2.6-20.95,4.72-31.28,1-4.87,2.25-9.66,3.81-14.34-.16-.83-.19-1.69-.25-2.52-.08-1.01-.14-2.02-.18-3.04-.09-2.03-.1-4.05-.03-6.08,.13-4,.52-8.03,1.31-11.95,.46-2.28,1.01-4.54,1.55-6.8,.02-.09,.16-.06,.14,.03-.91,3.91-1.34,7.96-1.7,11.95-.36,3.96-.49,7.94-.43,11.92,.02,1.09,.06,2.18,.11,3.26,.02,.46,.07,.93,.11,1.39,1.35-3.84,2.91-7.62,4.73-11.31,2.88-5.83,6.25-11.41,9.95-16.76-.07-.58,.08-1.21,.16-1.78,.11-.71,.23-1.43,.35-2.14,.25-1.46,.53-2.92,.85-4.37,.63-2.91,1.52-5.73,2.26-8.6,.02-.09,.17-.06,.14,.04-.68,2.84-1.08,5.77-1.57,8.66-.24,1.43-.47,2.85-.71,4.28-.12,.71-.23,1.43-.34,2.14,0,.05-.01,.11-.02,.16,1.19-1.68,2.41-3.34,3.66-4.98,5.66-7.4,11.92-14.28,18.24-21.12,.78-.84,1.57-1.66,2.36-2.49,.07-.07,.17,.03,.11,.1-6.01,6.98-11.92,14.03-17.47,21.38-1.32,1.75-2.62,3.51-3.89,5.3,.69-.53,1.39-1.04,2.08-1.54,1.77-1.3,3.57-2.57,5.43-3.75,1.86-1.18,3.74-2.33,5.65-3.41,1.97-1.11,4.09-2.05,5.99-3.29,.08-.05,.16,.09,.08,.12-1.97,.93-3.79,2.3-5.6,3.5-1.86,1.24-3.72,2.5-5.55,3.8-1.79,1.28-3.6,2.54-5.38,3.84-1.48,1.08-2.94,2.25-4.48,3.26-3.39,4.92-6.56,9.99-9.34,15.28-1.75,3.33-3.31,6.74-4.7,10.21,.37-.19,.74-.37,1.11-.55,.94-.48,1.88-.96,2.82-1.44,1.81-.93,3.64-1.83,5.46-2.74,3.46-1.73,6.99-3.34,10.37-5.22,1.9-1.05,3.76-2.16,5.5-3.46,.08-.06,.15,.07,.08,.12-6.24,4.82-13.34,8.35-20.34,11.91l-3.04,1.54c-.83,.42-1.67,.89-2.53,1.27-1.86,4.85-3.39,9.83-4.56,14.93-2.34,10.19-3.98,20.57-5.24,30.94-1.26,10.42-1.93,20.88-2.32,31.36-.05,1.31-.1,2.62-.17,3.92-.03,.52-.8,.56-.82,.02-.23-5.3,.03-10.64,.3-15.93Z" style="fill:#263238;"></path><path d="M407.75,286.84c.41-3.24,1.1-6.43,1.79-9.62,.02-.09,.16-.06,.14,.04-.63,3.13-1.04,6.31-1.45,9.47-.42,3.23-.77,6.46-1.05,9.7,0,.05-.09,.06-.09,0,.04-3.21,.25-6.41,.65-9.59Z" style="fill:#263238;"></path><path d="M421.83,294.83c2.06-1.63,4.4-2.91,6.67-4.24,1.12-.66,2.26-1.29,3.39-1.91,1.17-.65,2.4-1.2,3.56-1.86,.08-.05,.16,.08,.08,.12-1.12,.64-2.18,1.4-3.29,2.08-1.14,.7-2.27,1.41-3.41,2.11-2.24,1.36-4.44,2.86-6.81,4-.21,.1-.37-.16-.19-.3Z" style="fill:#263238;"></path></g></g><g><path d="M385.57,320.22s-20.02-4.78-29.21-18.21c-8.78-12.82-11.61-34.68-11.84-36.61,.36,1.76,4.49,20.87,18.12,29.77,10.43,6.82,20.52,12.42,22.93,25.05Z" style="fill:#263238; opacity:.1;"></path><path d="M367.1,285.63c3.52,3.39,6.16,7.38,7.38,12.16,.01,.04-.05,.06-.06,.02-1.5-4.44-3.99-8.83-7.42-12.07-.07-.07,.03-.18,.1-.11Z" style="fill:#263238;"></path><g><path d="M385.57,320.22s-20.02-4.78-29.21-18.21c-8.78-12.82-11.61-34.68-11.84-36.61-.02-.09-.02-.14-.02-.14,0,0,9.6,13.65,19.69,17.13,10.09,3.48,24.27,15.52,21.38,37.82Z" style="fill:#1D4ED8;"></path><path d="M348.05,272.8c1.86,3.64,3.8,7.25,6.19,10.58,2.32,3.24,5.12,6,8.23,8.47,2.72,2.16,5.59,4.12,8.35,6.23-.02-.03-.04-.07-.06-.1-.52-.77-1.07-1.51-1.64-2.24-1.15-1.46-2.4-2.85-3.66-4.21-2.49-2.7-5.03-5.35-7.26-8.27-1.23-1.62-2.32-3.34-3.21-5.17-.04-.08,.1-.13,.14-.05,3.25,6.77,9.73,11.09,14.36,16.81,.66,.81,1.28,1.65,1.85,2.53,.4,.62,.89,1.31,1.15,2.03,2.52,2.06,4.84,4.31,6.83,6.9-.17-1.31-.45-2.62-.8-3.89-.5-1.79-1.15-3.48-2.12-5.07-.05-.08,.07-.16,.12-.08,.94,1.58,1.79,3.28,2.33,5.04,.44,1.43,.65,2.86,.73,4.32h.01c1,1.35,1.89,2.77,2.7,4.22-.08-.43-.16-.86-.25-1.28-.4-1.99-.84-3.98-1.35-5.95-1.05-3.99-2.47-7.86-4.82-11.28-.05-.08,.07-.16,.12-.08,2.32,3.38,4.07,7.14,5.33,11.03,.64,1.96,1.15,3.96,1.6,5.98,.22,.98,.42,1.97,.61,2.96,.1,.51,.21,1.04,.29,1.56,2.05,4.32,3.48,8.96,4.62,13.57,2.04,8.3,3.31,16.83,4.27,25.31,1,8.91,1.53,17.91,1.38,26.87-.02,1.13-.08,2.25-.15,3.37-.02,.29-.45,.33-.46,.03-.2-4.44-.31-8.89-.57-13.32-.26-4.44-.65-8.87-1.12-13.3-.93-8.68-2.28-17.35-4.17-25.88-1.62-7.32-3.73-14.68-7.73-21.1-2-3.21-4.4-6.06-7.22-8.59-2.81-2.52-5.88-4.73-8.83-7.06-2.94-2.32-5.77-4.85-8.11-7.79-2.52-3.18-4.5-6.74-6.37-10.33-.47-.91-.96-1.81-1.43-2.71-.04-.08,.08-.17,.12-.08Z" style="fill:#263238;"></path><path d="M351.5,275.73c1.28,2.71,2.83,5.28,4.46,7.8,.04,.06-.05,.12-.09,.06-1.74-2.46-3.2-5.1-4.51-7.81-.04-.08,.1-.13,.14-.05Z" style="fill:#263238;"></path></g></g><g><path d="M461.52,311.37s.32,28.45-16.69,36.66c-17.01,8.22-26.13,1.37-37.69,4.12,0,0,.01,0,.02-.01,.45-.68,8.7-12.53,21.82-15.8,13.5-3.36,28.45-13.11,32.54-24.97Z" style="fill:#1D4ED8;"></path><path d="M461.52,311.37s.32,28.45-16.69,36.66c-17.01,8.22-26.13,1.37-37.69,4.12,0,0,.01,0,.02-.01,.48-.23,8.92-4.45,19.34-5.7,10.72-1.29,31.21-8.28,35.02-35.06Z" style="opacity:.1;"></path><g><path d="M406.02,352.65c2.03-1.83,4.3-3.4,6.77-4.58,.36-.17,.74-.32,1.11-.47,.18-.23,.37-.44,.57-.65,.51-.53,1.04-1.04,1.6-1.52,1.07-.92,2.21-1.75,3.42-2.47,2.82-1.66,5.91-2.82,8.79-4.35,.08-.04,.16,.09,.07,.13-1.42,.74-2.8,1.56-4.19,2.36-1.35,.79-2.73,1.54-4.04,2.38-1.18,.76-2.31,1.6-3.37,2.52-.3,.26-.59,.55-.87,.84,1.88-.64,3.8-1.13,5.75-1.53,3.11-.63,6.26-1.07,9.37-1.74,1.53-.33,3.03-.73,4.51-1.22,1.41-1.14,2.82-2.27,4.16-3.5,1.61-1.49,3.1-3.11,4.4-4.88,.06-.08,.18,0,.13,.08-2.1,2.71-4.35,5.44-6.97,7.69,.73-.28,1.46-.58,2.18-.9,5.78-2.63,10.92-6.8,14.49-12.06,.05-.08,.18,0,.13,.08-3.11,4.51-7.06,8.37-11.73,11.26-2.34,1.45-4.8,2.63-7.41,3.51-3,1-6.11,1.6-9.21,2.18-3.04,.57-6.08,1.15-9.01,2.14-2.71,.92-5.27,2.26-7.56,3.98-4.38,3.28-7.76,7.77-10.19,12.64-3.22,6.46-4.76,13.68-5.61,20.8-.04,.31-.51,.31-.49-.01,.8-11.96,3.99-24.4,13.21-32.7Z" style="fill:#263238;"></path><path d="M425.76,343.38c.85-1.36,2.12-2.38,3.5-3.17,1.61-.93,3.05-1.93,4.16-3.44,.06-.08,.18,0,.13,.08-1.03,1.32-2.26,2.4-3.67,3.29-1.48,.93-2.98,1.84-4,3.31-.05,.07-.15,0-.11-.07Z" style="fill:#263238;"></path></g></g></g><g><g><polygon points="415.25 383.19 414.47 398.83 412.1 466.62 376.42 466.62 374.05 398.83 373.27 383.19 415.25 383.19" style="fill:#455a64;"></polygon><polygon points="415.25 383.19 414.54 397.46 373.86 395.13 373.27 383.19 415.25 383.19" style="fill:#37474f;"></polygon></g><rect x="370.77" y="376.98" width="46.98" height="12.41" style="fill:#455a64;"></rect></g></g></g><g id="freepik--Character--inject-67"><g><g><g><polygon points="96.16 458.24 115.54 458.24 201.81 300.77 181.7 300.77 96.16 458.24" style="fill:#a6a6a6;"></polygon><polygon points="89.52 458.24 96.16 458.24 181.7 300.77 174.89 300.77 89.52 458.24" style="fill:#c7c7c7;"></polygon></g><g><rect x="210.11" y="300.77" width="19.93" height="157.47" style="fill:#a6a6a6;"></rect><rect x="202.89" y="300.77" width="7.21" height="157.47" style="fill:#c7c7c7;"></rect></g><g><rect x="57.62" y="458.24" width="186.94" height="8.38" style="fill:#c7c7c7;"></rect><rect x="244.56" y="458.24" width="80.46" height="8.38" style="fill:#a6a6a6;"></rect></g><g><path d="M278.04,343.3c0,7.07-4.44,12.81-9.94,12.88h-91v-25.76h91c5.51,.07,9.94,5.81,9.94,12.88Z" style="fill:#37474f;"></path><ellipse cx="177.08" cy="343.3" rx="10.04" ry="12.88" style="fill:#455a64;"></ellipse><ellipse cx="177.08" cy="343.3" rx="5.26" ry="6.74" style="fill:#c7c7c7;"></ellipse></g><g><path d="M278.04,390.22c0,7.07-4.44,12.81-9.94,12.88h-91v-25.76h91c5.51,.07,9.94,5.81,9.94,12.88Z" style="fill:#37474f;"></path><ellipse cx="177.08" cy="390.22" rx="10.04" ry="12.88" style="fill:#455a64;"></ellipse><path d="M182.34,390.22c0,3.72-2.35,6.74-5.26,6.74s-5.26-3.02-5.26-6.74,2.35-6.74,5.26-6.74,5.26,3.02,5.26,6.74Z" style="fill:#c7c7c7;"></path></g><g><rect x="166.79" y="284.99" width="12.21" height="15.78" style="fill:#455a64;"></rect><rect x="179" y="284.99" width="94.66" height="15.78" transform="translate(452.67 585.76) rotate(180)" style="fill:#37474f;"></rect></g><g><polygon points="137.82 128.09 124.71 128.09 153.72 284.99 166.83 284.99 137.82 128.09" style="fill:#455a64;"></polygon><polygon points="137.82 128.09 208.96 128.09 237.96 284.99 166.83 284.99 137.82 128.09" style="fill:#37474f;"></polygon></g></g><g><g><g><path d="M314.57,372.61s1.74,60.57,1.74,60.61c.55,11.58,1.25,21.72,2.09,26.93,0,.03,0,.06,.02,.08,.32,1.97,.66,3.22,1.03,3.53,.03,.03,.04,.06,.07,.07,3.56,2.17,96.2,.44,99.41-.71,3.22-1.13,.19-10.39-3.46-13.19-3.68-2.8-39.43-18-39.43-18l-2.31-60.51-59.16,1.19Z" style="fill:#eb9481;"></path><path d="M315.91,419.31s.4,13.87,.4,13.91c.55,11.58,1.25,21.72,2.09,26.93,0,.03,0,.06,.02,.08,.43,1.94,.8,3.21,1.03,3.53,.03,.03,.04,.06,.07,.07,3.56,2.17,96.2,.44,99.41-.71,3.22-1.13,.19-10.39-3.46-13.19-3.68-2.8-39.43-18-39.43-18l-.5-13.13-59.62,.51Z" style="fill:#ebebeb;"></path><g><path d="M418.96,463.01c-3.26,1.11-96.66,1.35-100.22-.9-1.37-.83-2.2-14.44-2.73-30.91,0-.17,0-.34-.01-.52l60.26-.83-.02,1.02s35.79,15.9,39.45,18.79c3.63,2.88,6.53,12.25,3.27,13.35Z" style="fill:#1D4ED8;"></path><g><path d="M417.89,459.39c-15.75-.35-79.29-.25-94.88,.6-.13,0-.13,.09,0,.1,15.6,.68,79.14,.08,94.88-.44,.33-.01,.33-.25,0-.26Z" style="fill:#fff;"></path><path d="M381.3,431.04c-6.2-1.14-13.77-.17-18.5,4.26-.18,.17,.06,.43,.26,.37,6.11-1.94,11.81-3.19,18.21-3.84,.45-.05,.47-.7,.02-.78Z" style="fill:#263238;"></path><path d="M385.78,433.73c-6.2-1.14-13.77-.17-18.5,4.26-.18,.17,.06,.43,.26,.37,6.11-1.94,11.81-3.19,18.21-3.84,.45-.05,.47-.7,.02-.78Z" style="fill:#263238;"></path><path d="M390.26,436.41c-6.2-1.14-13.77-.17-18.5,4.26-.18,.17,.06,.43,.26,.37,6.11-1.94,11.81-3.19,18.21-3.84,.45-.05,.47-.7,.02-.78Z" style="fill:#263238;"></path></g><path d="M420.38,459.65c1.67,.64,1.33,6.25,.12,6.71-1.21,.45-103.05,.27-104.78-.11-1.73-.38-1.11-6.6,.9-6.92,2.01-.32,103.76,.32,103.76,.32Z" style="fill:#263238;"></path><path d="M331.45,441.1c-6.78-3.37-12.03,7.16-5.23,10.54,6.78,3.37,12.03-7.16,5.23-10.54Z" style="fill:#fff;"></path><path d="M360.84,430.06s2.77-4.38,4.25-4.94c1.48-.55,13.32-.79,14.16-.23,.83,.55-2.99,4.96-2.99,4.96l-15.42,.21Z" style="fill:#1D4ED8;"></path><path d="M354.08,463.71c-18.42-.2-33.93-.7-35.34-1.6-1.15-.69-1.91-10.42-2.45-23.29l37.79,24.89Z" style="opacity:.1;"></path></g></g><g><path d="M375.48,416.41l-57.65,.72s-7.29-115.96-14.5-119.28c-12.13-5.58-87.77-11.05-115.02-30.74-22.13-15.99-14.05-68.72-14.05-68.72l62.08,.03s4.48,21.17,5.82,26.8c0,0,95.15,19.45,114.71,40.9,18.58,20.37,18.61,150.3,18.61,150.3Z" style="fill:#eb9481;"></path><path d="M300.57,296.86c-18.05-5.29-86.61-11.23-112.26-29.76-22.13-15.99-14.06-68.73-14.06-68.73l62.09,.03s4.48,21.17,5.83,26.8c0,0,16.15,3.3,36.5,8.67l21.91,62.98Z" style="opacity:.1;"></path><path d="M251.74,289.96s32.54-42.07,60.83-47.52c0,0-39.67-11.37-68.93-18.77l-7.31-25.26-62.08-.03s-8.58,49.36,7.96,65.97c16.53,16.61,69.52,25.61,69.52,25.61Z" style="fill:#1D4ED8;"></path><path d="M285.61,256.13c-18.66,14.18-33.86,33.83-33.86,33.83,0,0-52.99-9-69.53-25.6-16.54-16.61-7.96-65.98-7.96-65.98l62.09,.03,7.31,25.27c6.22,1.57,12.92,3.33,19.61,5.1l22.35,27.35Z" style="opacity:.1;"></path></g></g><g><g><path d="M291.97,416.99l-58.81,.13s-.16-124.31-7.37-127.62c-12.13-5.58-34.86-7.05-51.52-22.4-20.08-18.5-3.84-68.72-3.84-68.72l55.73,.03s8.79,22.59,10.13,28.22c0,0,25.71,9.22,45.27,30.66,18.58,20.37,10.41,159.69,10.41,159.69Z" style="fill:#eb9481;"></path><g><path d="M232.66,372.61s.63,60.57,.63,60.61c.55,11.58,1.25,21.72,2.09,26.93,0,.03,0,.06,.02,.08,.32,1.97,.66,3.22,1.03,3.53,.03,.03,.04,.06,.07,.07,3.56,2.17,82.85,.44,86.06-.71,3.22-1.13,.19-10.39-3.46-13.19-3.68-2.8-26.08-18-26.08-18l-1.2-60.51-59.16,1.19Z" style="fill:#eb9481;"></path><path d="M233.16,419.31s.13,13.87,.13,13.91c.55,11.58,1.25,21.72,2.09,26.93,0,.03,0,.06,.02,.08,.43,1.94,.8,3.21,1.03,3.53,.03,.03,.04,.06,.07,.07,3.56,2.17,82.85,.44,86.06-.71,3.22-1.13,.19-10.39-3.46-13.19-3.68-2.8-26.08-18-26.08-18l-.25-12.62h-59.61Z" style="fill:#ebebeb;"></path><g><path d="M322.6,463.01c-3.26,1.11-83.32,1.35-86.88-.9-1.37-.83-2.2-14.44-2.73-30.91,0-.17,0-.34-.01-.52l60.26-.83-.02,1.02s22.45,15.9,26.1,18.79c3.63,2.88,6.53,12.25,3.27,13.35Z" style="fill:#1D4ED8;"></path><g><path d="M321.53,459.39c-15.75-.35-65.94-.25-81.53,.6-.13,0-.13,.09,0,.1,15.6,.68,65.79,.08,81.53-.44,.33-.01,.33-.25,0-.26Z" style="fill:#fff;"></path><path d="M289.8,435.06c-8.96-2.45-16.82-2.64-27.43,.63-.29,.09,.09,.45,.39,.42,9.06-.75,17.52-.88,27.01-.26,.67,.04,.69-.61,.03-.79Z" style="fill:#263238;"></path><path d="M292.01,438.57c-8.96-2.45-16.82-2.64-27.43,.63-.29,.09,.09,.45,.39,.42,9.06-.75,17.52-.88,27.01-.26,.67,.04,.69-.61,.03-.79Z" style="fill:#263238;"></path><path d="M294.23,442.08c-8.96-2.45-16.82-2.64-27.43,.63-.29,.09,.09,.45,.39,.42,9.06-.75,17.52-.88,27.01-.26,.67,.04,.69-.61,.03-.79Z" style="fill:#263238;"></path></g><path d="M324.02,459.65c1.67,.64,1.33,6.25,.12,6.71-1.21,.45-89.7,.27-91.43-.11-1.73-.38-1.11-6.6,.9-6.92,2.01-.32,90.42,.32,90.42,.32Z" style="fill:#263238;"></path><path d="M240.31,439.77c-5.41,0-5.42,11.77,0,11.77,5.41,0,5.42-11.77,0-11.77Z" style="fill:#fff;"></path><path d="M259.2,430.32s-2.16-4.05-1.26-5.6c.51-.88,26.9-1.05,28.63-.31,1.73,.74,.45,5.52,.45,5.52l-27.81,.38Z" style="fill:#1D4ED8;"></path></g></g></g><g><path d="M170.5,198.31l55.73,.08,11.66,27.92s22.05,8.21,39.82,25.47c0,0-20.76-5.09-35.33,4.93-16.1,11.07-20.2,33.25-20.2,33.25,0,0-42.5-9.22-53.77-26.61-12.18-18.79,2.09-65.04,2.09-65.04Z" style="fill:#1D4ED8;"></path><g><path d="M226.86,276.12c-.32,.71-.63,1.41-.92,2.09-11.93-2.37-48.1-10.71-55.63-25.82-6.51-13.07-.61-43.94,1.59-54.08h2.28c-2.04,9.4-8.08,40.61-1.88,53.09,7.09,14.23,43.45,22.5,54.56,24.72Z" style="fill:#fff;"></path><path d="M229.46,271.16c-.41,.69-.8,1.38-1.16,2.07-14.28-2.57-46.21-9.78-53.18-23.8-5.95-11.94-1.62-38.79,.82-51.11h2.29c-2.36,11.89-6.77,38.78-1.12,50.12,6.57,13.22,38.8,20.3,52.34,22.72Z" style="fill:#fff;"></path></g><path d="M241.41,228.01c-14.48-3.6-31.04-1.97-43.6,6.63,9.3-12.08,30.98-14.55,43.6-6.63h0Z" style="opacity:.1;"></path></g></g><g><g><path d="M219.82,141.27c27.59,16.12,50.76,21.28,56.69,21.69,14.9,1.03,24.49-49.11,25.41-58.15,.41-4.03-32.74-5.16-33.84-.97-2.48,9.45-5.26,27.86-5.78,27.89-3.69,.17-24.77-3.54-43.73-4.64-5-.29-6.57,9.61,1.24,14.18Z" style="fill:#eb9481;"></path><path d="M236.57,150.07c-5.3-2.48-10.93-5.39-16.76-8.8-7.82-4.57-6.24-14.47-1.25-14.18h.02l17.98,22.98Z" style="opacity:.1;"></path><g><path d="M301.06,77.35c2.73,7.41,2.38,24.74,.69,28.89-1.69,4.15-31.18,4.54-34.04,.94-2.86-3.6-10.12-29.25-7.56-36.9,2.55-7.64,38.09-.61,40.92,7.06Z" style="fill:#eb9481;"></path><g><g><rect x="239.42" y="64.29" width="12.72" height="37.33" transform="translate(-.12 .36) rotate(-.08)" style="fill:#455a64;"></rect><g><rect x="233.3" y="67.42" width="6.11" height="31.09" transform="translate(-.12 .34) rotate(-.08)" style="fill:#455a64;"></rect><rect x="236.36" y="67.41" width="3.06" height="31.09" transform="translate(-.12 .35) rotate(-.08)" style="fill:#263238;"></rect></g></g><g><rect x="303.07" y="64.18" width="12.72" height="37.33" transform="translate(618.98 165.23) rotate(179.92)" style="fill:#455a64;"></rect><g><rect x="315.79" y="67.28" width="6.11" height="31.09" transform="translate(637.81 165.19) rotate(179.92)" style="fill:#455a64;"></rect><rect x="315.79" y="67.29" width="3.06" height="31.09" transform="translate(-.12 .46) rotate(-.08)" style="fill:#263238;"></rect></g></g><rect x="252.13" y="77.38" width="50.93" height="11.03" transform="translate(-.15 .51) rotate(-.1)" style="fill:#37474f;"></rect></g><g><path d="M258.58,82.83c3.27,2.61,4.47-2.74,4.47-2.74,0,0,.12,8.11,4.53,9.5,4.25,1.33,5.48-5.18,5.58-5.65,0,.43,.31,7.88,4.89,8.82,4.76,.97,4.87-5.77,4.87-6.21,.14,.4,2.03,5.69,5.67,5.61,6.25-.14,1.77-13.79,4.25-18.21,0,0,7.97,3.34,8.22,3.39,0,0-3.99-13.08-10.14-16.08-3.24-1.58-5.35,1.12-5.35,1.12,0,0-.82-4.36-4.4-5.21-1.84-.43-4.17,2.12-4.17,2.12,0,0-.8-3.46-4.03-4.02-2.58-.46-4.51,2.18-4.51,2.18,0,0-2.31-2.97-5.1-2.58-5.62,.77-11.77,22.35-4.77,27.95Z" style="fill:#eb9481;"></path><g><path d="M268.08,57.82c.03-.07-.07-.12-.11-.05-3.75,6.6-5.86,15.01-5.02,22.6,.03,.25,.44,.31,.47,.03,.63-7.99,1.83-15.04,4.66-22.58Z" style="fill:#263238;"></path><path d="M276.99,59.18c.03-.08-.1-.13-.15-.05-3.83,6.82-5.94,16.36-3.94,25,.07,.3,.43,.49,.37,.15-.89-5.85,1.14-18.31,3.72-25.09Z" style="fill:#263238;"></path><path d="M283.27,87.11c-1.59-8.36-.35-16.39,2.12-24.45,.03-.11-.12-.14-.17-.06-2.28,3.62-3.32,8.92-3.77,13.11-.44,4.02-.03,7.73,1.53,11.45,.06,.14,.33,.12,.29-.06Z" style="fill:#263238;"></path></g><path d="M263.05,80.09c.18,1.56,.47,3.1,.92,4.58,.46,1.46,1.11,2.94,2.2,3.89,.54,.47,1.19,.75,1.88,.74,.7-.02,1.42-.18,2-.54,1.19-.69,1.9-2.13,2.13-3.47l.59-3.38,.62,3.38c.27,1.47,.76,2.99,1.49,4.29,.73,1.3,1.8,2.4,3.12,2.67,1.38,.31,2.67-.19,3.32-1.42,.69-1.19,.93-2.79,.92-4.25l-.03-4.06,1.35,3.81c.37,1.03,.89,2.09,1.51,3.01,.63,.91,1.42,1.72,2.35,2.07,.91,.35,2.02,.2,2.68-.46,.71-.68,1.06-1.82,1.29-2.92,.44-2.27,.4-4.66,.49-7.03,.03-1.19,.06-2.38,.15-3.58,.11-1.18,.21-2.42,.8-3.47-.48,1.1-.44,2.31-.47,3.49,0,1.18,.06,2.37,.12,3.56,.12,2.38,.21,4.77-.12,7.21-.21,1.2-.48,2.49-1.44,3.55-1,1.09-2.64,1.31-3.93,.83-1.32-.49-2.25-1.49-2.99-2.5-.73-1.04-1.29-2.12-1.74-3.32l1.32-.25c.03,1.72-.16,3.41-1.03,5.03-.43,.8-1.17,1.53-2.09,1.88-.92,.36-1.87,.36-2.77,.16-1.87-.43-3.16-1.92-3.95-3.38-.81-1.51-1.29-3.08-1.57-4.75h1.21c-.36,1.7-1.28,3.3-2.86,4.15-.78,.41-1.65,.56-2.51,.54-.89-.03-1.75-.45-2.36-1.04-1.23-1.22-1.71-2.82-2.09-4.34-.36-1.55-.52-3.12-.52-4.69Z" style="fill:#263238;"></path></g><g><path d="M265.7,103.03s-23.01-24.34-9.09-28.67c4.14-1.29,22.66-1.64,22.8,2.08,.18,4.8-7.52,6.39-12.52,6.62,0,0,8.99,7.18,5.86,14.93-1.96,4.86-7.06,5.04-7.06,5.04Z" style="fill:#eb9481;"></path><path d="M255.48,74.79c1.53-.76,3.24-1.09,4.91-1.38,1.69-.28,3.4-.4,5.11-.44,3.42-.05,6.81,0,10.26,.54,.86,.15,1.73,.34,2.61,.76,.43,.21,.89,.51,1.24,.94,.18,.21,.31,.41,.44,.74,.1,.29,.16,.57,.16,.83,.06,1.09-.39,2.06-.98,2.82-.62,.75-1.37,1.32-2.15,1.79-1.58,.92-3.3,1.4-5,1.71-1.71,.34-3.43,.46-5.15,.54l.33-1.06c1.03,.87,1.9,1.81,2.73,2.83,.82,1.01,1.54,2.11,2.13,3.27,.58,1.16,1,2.41,1.22,3.69,.23,1.28,.2,2.59-.06,3.84,.09-1.27-.02-2.54-.34-3.75-.32-1.21-.85-2.35-1.48-3.42-.63-1.07-1.37-2.08-2.21-3-.83-.92-1.75-1.8-2.71-2.52l-1.21-.92,1.54-.14c1.66-.16,3.33-.3,4.94-.68,1.6-.35,3.21-.8,4.56-1.62,1.32-.78,2.5-2.01,2.43-3.32,.04-1.15-1.73-1.73-3.29-2.03-1.61-.32-3.29-.48-4.97-.64-1.68-.15-3.36-.29-5.04-.33-3.35-.03-6.77-.08-10.02,.93Z" style="fill:#263238;"></path></g></g></g><path d="M162.13,234.64c.21,.23,82.75-13.43,82.75-13.43,.84-.99-3.04-41.1-13.39-69.28-3.45-9.39-8.26-18.15-11.97-23.75-3.34-5.04-17.36-9.12-25.58,.99-27.2,33.49-32.57,104.64-31.81,105.47Z" style="fill:#ebebeb;"></path><g><g><path d="M214.02,141.84c-3.78,.02-11.35-7.33-14.18-13.39-.19-.42,.69-4.61,1.53-9.75,.5-3.12,.97-6.61,1.18-9.83l19.86,6.19s-2.41,6.61-2.74,12.22c-.02,.47,0,.91,.05,1.33,0,.06,.02,.14,.02,.22,.25,2.53,.2,12.97-5.72,13.01Z" style="fill:#eb9481;"></path><path d="M201.51,117.8c3.68,6.34,9.55,12.69,18.31,12.3-.02-.54-.04-.97-.07-1.27,0-.08-.02-.16-.02-.22-.07-.42-.08-.86-.05-1.33,.32-5.61,2.73-12.22,2.73-12.22l-19.86-6.19c-.17,2.9-.59,6.05-1.04,8.93Z" style="fill:#263238;"></path></g><g><path d="M199.73,85.44c-2.63,7.02-.13,27.92,4.67,32.84,6.96,7.14,19,8.52,25.22,.01,6.03-8.25,2.3-35.43-3.12-39.97-7.99-6.69-22.89-3.25-26.77,7.12Z" style="fill:#eb9481;"></path><g><g><path d="M217.2,97.95c-.02-.05-.1,.08-.09,.14,.22,1.4,.23,3.04-.99,3.67-.04,.02-.02,.09,.02,.08,1.53-.41,1.49-2.59,1.06-3.88Z" style="fill:#263238;"></path><path d="M215.77,96.63c-2.28,.11-1.9,4.67,.21,4.57,2.08-.1,1.7-4.66-.21-4.57Z" style="fill:#263238;"></path></g><g><path d="M225.81,97.27c0-.06,.12,.06,.12,.12,.07,1.42,.39,3.03,1.71,3.39,.04,.01,.04,.08,0,.08-1.58-.09-1.98-2.23-1.83-3.58Z" style="fill:#263238;"></path><path d="M226.95,95.69c2.26-.36,2.81,4.18,.72,4.52-2.06,.33-2.62-4.21-.72-4.52Z" style="fill:#263238;"></path></g><path d="M214.26,93.52c.64-.1,1.2-.3,1.82-.46,.7-.18,1.27-.26,1.77-.82,.27-.3,.22-.89-.05-1.18-.63-.67-1.54-.66-2.39-.47-.92,.2-1.58,.59-2.16,1.33-.57,.71,.17,1.73,1,1.6Z" style="fill:#263238;"></path><path d="M228.39,92.75c-.64-.05-1.22-.2-1.85-.32-.71-.13-1.29-.16-1.83-.69-.29-.28-.29-.87-.04-1.18,.57-.71,1.48-.77,2.34-.65,.93,.13,1.62,.47,2.26,1.16,.62,.67-.04,1.74-.88,1.67Z" style="fill:#263238;"></path><path d="M217.44,111.24c.35,.32,.71,.76,1.23,.78,.49,.02,1.06-.23,1.51-.42,.04-.02,.09,.03,.06,.07-.34,.56-1.1,.93-1.77,.85-.65-.08-.99-.63-1.17-1.21-.03-.08,.08-.12,.13-.07Z" style="fill:#263238;"></path><path d="M218.75,106.94c.84,1.2,2.04,1.82,3.31,2.01,.57,.09,1.16,.08,1.74,0,.11,0,.23-.02,.33-.05,.1-.02,.2-.03,.31-.06,.16-.03,.25-.17,.27-.33h0c0-.06,0-.1-.02-.15h0v-.13c-.02-1.09-.2-2.75-.2-2.75,.41,.18,2.48,1.01,2.42,.44-.48-4.7-1.02-9.94-2.49-14.52-.04-.15-.28-.11-.26,.05,.28,4.54,1.36,9,1.72,13.55-.66-.22-1.74-.63-2.31-.59-.15,.05,.4,3.19,.37,3.68,0,0,0,.02,0,.05-1.82,.31-3.23-.18-5.06-1.34-.11-.08-.22,.02-.13,.13Z" style="fill:#263238;"></path><g><path d="M223.13,108.43s-.91,1.35-2.22,1.87c-.48,.2-1,.29-1.56,.16-1.14-.25-1.22-1.29-1.05-2.18,.14-.74,.45-1.38,.45-1.38,0,0,1.72,1.48,4.37,1.53Z" style="fill:#263238;"></path><path d="M220.92,110.3c-.48,.2-1,.29-1.56,.16-1.14-.25-1.22-1.29-1.05-2.18,1.22,.07,2.45,.85,2.61,2.02Z" style="fill:#ff99ba;"></path></g></g><path d="M199.23,102.48c3.06,.81,4.74-1.82,5.5-3.73,.76-1.91-.05-13.52,1.4-16.39,1.45-2.87,4.61-4.5,7.13-3.78,2.52,.71,5.81,3.98,7.67,3.79,1.85-.19,2.25-4.21,3.54-4.23,2.84-.04,5.92,7.12,6.47,10.23,0,0,0-13.72-13.41-15.06-13.27-1.33-17.76,7.35-18.87,11.37-2.13,7.7,.57,17.81,.57,17.81Z" style="fill:#263238;"></path><g><path d="M203.84,101.86s-4.39-6.89-7.49-5.36c-3.11,1.54-.01,11.38,3.49,12.87,3.51,1.48,4.94-1.74,4.94-1.74l-.94-5.77Z" style="fill:#eb9481;"></path><path d="M197.3,99.31c-.06,0-.07,.07-.02,.09,2.45,1.12,3.67,3.49,4.49,5.94-.7-.96-1.69-1.51-2.97-.68-.07,.04,0,.15,.06,.14,1.03-.17,1.76,.03,2.42,.88,.46,.6,.77,1.35,1.09,2.04,.11,.23,.52,.13,.44-.13,0-.02-.01-.04-.02-.06,.2-3.18-2.08-7.75-5.49-8.22Z" style="fill:#263238;"></path></g></g></g><g><path d="M194.59,142.66c-27.59,16.12-50.76,21.28-56.69,21.69-14.9,1.03-24.49-49.11-25.41-58.15-.41-4.03,32.74-5.16,33.84-.97,2.48,9.45,5.26,27.86,5.78,27.89,3.69,.17,24.77-3.54,43.73-4.64,5-.29,6.57,9.61-1.24,14.18Z" style="fill:#eb9481;"></path><g><path d="M113.34,78.74c-2.73,7.41-2.38,24.74-.69,28.89,1.69,4.15,31.18,4.54,34.04,.94,2.86-3.6,10.12-29.25,7.56-36.9-2.55-7.64-38.09-.61-40.92,7.06Z" style="fill:#eb9481;"></path><g><g><rect x="162.27" y="65.68" width="12.72" height="37.33" transform="translate(337.13 168.93) rotate(-179.92)" style="fill:#455a64;"></rect><g><rect x="174.98" y="68.81" width="6.11" height="31.09" transform="translate(355.96 168.97) rotate(-179.92)" style="fill:#455a64;"></rect><rect x="160.96" y="82.82" width="31.09" height="3.06" transform="translate(91.9 260.74) rotate(-89.92)" style="fill:#263238;"></rect></g></g><g><rect x="98.62" y="65.57" width="12.72" height="37.33" transform="translate(.12 -.15) rotate(.08)" style="fill:#455a64;"></rect><g><rect x="92.5" y="68.67" width="6.11" height="31.09" transform="translate(.12 -.14) rotate(.08)" style="fill:#455a64;"></rect><rect x="81.54" y="82.7" width="31.09" height="3.06" transform="translate(12.72 181.19) rotate(-89.92)" style="fill:#263238;"></rect></g></g><rect x="111.33" y="78.77" width="50.93" height="11.03" transform="translate(273.45 168.82) rotate(-179.9)" style="fill:#37474f;"></rect></g><g><path d="M155.82,84.22c-3.27,2.61-4.47-2.74-4.47-2.74,0,0-.12,8.11-4.53,9.5-4.25,1.33-5.48-5.18-5.58-5.65-.01,.43-.31,7.88-4.89,8.82-4.76,.97-4.87-5.77-4.87-6.21-.14,.4-2.03,5.69-5.67,5.61-6.25-.14-1.77-13.79-4.25-18.21,0,0-7.97,3.34-8.22,3.39,0,0,3.99-13.08,10.14-16.08,3.24-1.58,5.35,1.12,5.35,1.12,0,0,.82-4.36,4.4-5.21,1.84-.43,4.17,2.12,4.17,2.12,0,0,.8-3.46,4.03-4.02,2.58-.46,4.51,2.18,4.51,2.18,0,0,2.31-2.97,5.1-2.58,5.62,.77,11.77,22.35,4.77,27.95Z" style="fill:#eb9481;"></path><g><path d="M146.32,59.21c-.03-.07,.07-.12,.11-.05,3.75,6.6,5.86,15.01,5.02,22.6-.03,.25-.44,.31-.47,.03-.63-7.99-1.83-15.04-4.66-22.58Z" style="fill:#263238;"></path><path d="M137.42,60.57c-.03-.08,.1-.13,.15-.05,3.83,6.82,5.94,16.36,3.94,25-.07,.3-.43,.49-.37,.15,.89-5.85-1.14-18.31-3.72-25.09Z" style="fill:#263238;"></path><path d="M131.13,88.5c1.59-8.36,.35-16.39-2.12-24.45-.03-.1,.12-.14,.17-.06,2.28,3.62,3.32,8.92,3.77,13.11,.44,4.02,.03,7.73-1.53,11.45-.06,.14-.33,.12-.29-.06Z" style="fill:#263238;"></path></g><path d="M151.35,81.48c-.18,1.56-.47,3.1-.92,4.58-.46,1.46-1.11,2.94-2.2,3.89-.54,.47-1.19,.75-1.88,.74-.7-.02-1.42-.19-2-.54-1.19-.69-1.9-2.13-2.13-3.47l-.59-3.38-.62,3.38c-.27,1.47-.76,2.99-1.49,4.29-.73,1.3-1.8,2.4-3.12,2.67-1.38,.31-2.67-.19-3.32-1.42-.69-1.19-.93-2.79-.92-4.25l.03-4.06-1.35,3.81c-.37,1.03-.89,2.09-1.51,3.01-.63,.91-1.42,1.72-2.35,2.07-.91,.35-2.02,.2-2.68-.46-.71-.68-1.06-1.82-1.29-2.92-.44-2.27-.4-4.66-.49-7.03-.03-1.19-.06-2.38-.15-3.58-.11-1.18-.21-2.42-.8-3.47,.48,1.1,.44,2.31,.47,3.49,0,1.18-.06,2.37-.12,3.56-.12,2.38-.21,4.77,.12,7.21,.21,1.2,.48,2.49,1.44,3.55,1,1.09,2.64,1.31,3.93,.83,1.32-.49,2.25-1.49,2.99-2.49,.73-1.04,1.29-2.12,1.74-3.32l-1.32-.25c-.03,1.72,.16,3.41,1.03,5.03,.43,.8,1.17,1.53,2.09,1.88,.92,.36,1.87,.36,2.77,.16,1.87-.43,3.16-1.92,3.95-3.38,.81-1.51,1.29-3.08,1.57-4.75h-1.21c.36,1.7,1.28,3.3,2.86,4.15,.78,.41,1.65,.56,2.51,.54,.89-.03,1.75-.45,2.36-1.04,1.23-1.22,1.71-2.82,2.09-4.34,.36-1.55,.52-3.12,.52-4.69Z" style="fill:#263238;"></path></g><g><path d="M148.7,104.42s23.01-24.34,9.09-28.67c-4.14-1.29-22.66-1.64-22.8,2.08-.18,4.8,7.52,6.39,12.52,6.62,0,0-8.99,7.18-5.86,14.93,1.96,4.86,7.06,5.04,7.06,5.04Z" style="fill:#eb9481;"></path><path d="M158.92,76.18c-1.53-.76-3.24-1.09-4.91-1.38-1.69-.28-3.4-.4-5.11-.44-3.42-.05-6.81,0-10.26,.54-.86,.15-1.73,.34-2.61,.76-.43,.21-.89,.51-1.24,.94-.18,.21-.31,.41-.44,.74-.1,.29-.16,.57-.16,.83-.06,1.09,.39,2.06,.98,2.82,.62,.75,1.37,1.32,2.15,1.79,1.58,.92,3.3,1.4,5,1.71,1.71,.34,3.43,.46,5.15,.54l-.33-1.06c-1.03,.87-1.9,1.81-2.73,2.83-.82,1.01-1.54,2.11-2.13,3.27-.58,1.16-1,2.41-1.22,3.69-.23,1.28-.2,2.59,.06,3.84-.09-1.27,.02-2.54,.34-3.75,.32-1.21,.85-2.35,1.48-3.42,.63-1.07,1.38-2.08,2.21-3,.83-.92,1.75-1.8,2.71-2.52l1.21-.92-1.55-.14c-1.66-.16-3.33-.3-4.94-.68-1.6-.35-3.21-.8-4.56-1.62-1.32-.78-2.5-2.01-2.43-3.32-.04-1.15,1.73-1.73,3.29-2.03,1.61-.32,3.29-.48,4.97-.64,1.68-.15,3.36-.29,5.04-.33,3.35-.03,6.77-.08,10.02,.93Z" style="fill:#263238;"></path></g></g><path d="M196.43,128.38c11.49,.93-5.17,49.23-15.23,48.45-10.07-.78,7.44-49.09,15.23-48.45Z" style="fill:#eb9481;"></path><path d="M191.01,145.27c-.38,.11-.75,.23-1.13,.35,1.65-.95,3.25-1.96,4.82-3.04,.03-.02,0-.08-.04-.06-1.94,.95-3.85,1.93-5.73,2.99-.89,.5-1.8,.97-2.67,1.5-.98,.6-1.93,1.24-2.95,1.77-.12,.06-.03,.25,.08,.19,.97-.52,1.97-.94,2.96-1.42,.86-.42,1.69-.89,2.52-1.35,.28-.06,.57-.12,.85-.21,.46-.14,.91-.29,1.35-.47,.89-.35,1.76-.74,2.64-1.11,.01,0,0-.02,0-.02-.88,.34-1.78,.62-2.69,.88Z" style="fill:#263238;"></path></g></g></g></g></g><g id="freepik--Floor--inject-67"><path d="M39.97,466.62c134.56-.61,285.5-.62,420.06,0-134.56,.62-285.5,.61-420.06,0h0Z" style="fill:#263238;"></path></g><g id="freepik--Dumbbell--inject-67"><g><g><rect x="56.62" y="429.31" width="12.72" height="37.33" transform="translate(-.66 .09) rotate(-.08)" style="fill:#455a64;"></rect><g><rect x="50.51" y="432.44" width="6.11" height="31.09" transform="translate(-.65 .08) rotate(-.08)" style="fill:#455a64;"></rect><rect x="53.57" y="432.43" width="3.06" height="31.09" transform="translate(-.65 .08) rotate(-.08)" style="fill:#263238;"></rect></g></g><g><rect x="120.28" y="429.2" width="12.72" height="37.33" transform="translate(253.92 895.54) rotate(179.92)" style="fill:#455a64;"></rect><g><rect x="132.99" y="432.3" width="6.11" height="31.09" transform="translate(272.75 895.5) rotate(179.92)" style="fill:#455a64;"></rect><rect x="132.99" y="432.31" width="3.06" height="31.09" transform="translate(-.65 .2) rotate(-.08)" style="fill:#263238;"></rect></g></g><rect x="69.34" y="442.4" width="50.93" height="11.03" transform="translate(-.82 .17) rotate(-.1)" style="fill:#37474f;"></rect></g></g><g id="freepik--Bottle--inject-67"><g><g><rect x="191.87" y="377.34" width="9.16" height="10.54" style="fill:#dbdbdb;"></rect><rect x="188.99" y="384.46" width="14.94" height="12.03" style="fill:#c7c7c7;"></rect></g><path d="M214.21,411.39v55.06h-35.51v-55.06c0-10.9,6.85-19.31,17.75-19.31s17.76,8.41,17.76,19.31Z" style="fill:#1D4ED8;"></path><rect x="178.7" y="421.08" width="35.51" height="9.33" style="fill:#455a64;"></rect><rect x="178.7" y="434.76" width="35.51" height="4.67" style="fill:#455a64;"></rect></g></g></svg>
